<svg width="280" height="172" viewBox="0 0 280 172" fill="none" xmlns="http://www.w3.org/2000/svg">
<path d="M22.7729 147.386L30.5608 153.659L30.5608 153.659L22.7729 147.386ZM260.185 90.2706L256.102 99.3992L256.102 99.3992L260.185 90.2706ZM272.882 103.695C278.041 101.725 280.626 95.9446 278.656 90.7853L246.543 6.70902C244.573 1.54969 238.793 -1.03533 233.634 0.935228C228.474 2.90578 225.889 8.6857 227.86 13.845L256.404 88.5795L181.669 117.124C176.51 119.094 173.925 124.874 175.896 130.033C177.866 135.193 183.646 137.778 188.806 135.807L272.882 103.695ZM16.0867 171.629L30.5608 153.659L14.9849 141.113L0.510842 159.083L16.0867 171.629ZM256.102 99.3992L265.231 103.482L273.396 85.2247L264.268 81.142L256.102 99.3992ZM30.5608 153.659C84.6945 86.4503 177.324 64.166 256.102 99.3992L264.268 81.142C177.197 42.2 74.817 66.8301 14.9849 141.113L30.5608 153.659Z" fill="#6BF4FD"/>
</svg>
